<svg width="375" height="44" viewBox="0 0 375 44" fill="none" xmlns="http://www.w3.org/2000/svg">
<rect opacity="0.01" width="375" height="44" fill="white"/>
<rect opacity="0.01" x="334" y="13" width="27" height="20" fill="#FA3E3E"/>
<path fill-rule="evenodd" clip-rule="evenodd" d="M355.5 17.5H338.5C337.119 17.5 336 18.6193 336 20V26.5C336 27.8807 337.119 29 338.5 29H355.5C356.881 29 358 27.8807 358 26.5V20C358 18.6193 356.881 17.5 355.5 17.5ZM337 20C337 19.1716 337.672 18.5 338.5 18.5H355.5C356.328 18.5 357 19.1716 357 20V26.5C357 27.3284 356.328 28 355.5 28H338.5C337.672 28 337 27.3284 337 26.5V20ZM360.25 23C360.25 22.0746 359.747 21.2667 359 20.8345V25.1655C359.747 24.7333 360.25 23.9254 360.25 23Z" fill="white" fill-opacity="0.38"/>
<path fill-rule="evenodd" clip-rule="evenodd" d="M339 19.5H355C355.552 19.5 356 19.9477 356 20.5V26C356 26.5523 355.552 27 355 27H339C338.448 27 338 26.5523 338 26V20.5C338 19.9477 338.448 19.5 339 19.5Z" fill="white"/>
<rect opacity="0.01" x="292" y="13" width="20" height="20" fill="#FA3E3E"/>
<rect opacity="0.01" x="313" y="13" width="20" height="20" fill="#FA3E3E"/>
<path fill-rule="evenodd" clip-rule="evenodd" d="M330.872 20.6988L330.866 20.464C328.806 18.6212 326.161 17.605 323.381 17.605C320.593 17.605 317.94 18.627 315.879 20.4792L315.872 20.7138L317.092 21.9352L317.312 21.9423C318.99 20.4653 321.132 19.6524 323.381 19.6524C325.622 19.6524 327.757 20.4597 329.433 21.9277L329.653 21.9203L330.872 20.6988ZM328.193 23.1343L328.204 23.3723L326.981 24.5974L326.766 24.6094C325.805 23.8415 324.62 23.4241 323.381 23.4241C322.134 23.4241 320.942 23.8466 319.979 24.6231L319.763 24.6115L318.541 23.3868L318.551 23.1492C319.9 22.0039 321.599 21.3766 323.381 21.3766C325.154 21.3766 326.847 21.9983 328.193 23.1343ZM323.479 28.105H323.251L321.222 26.0728C321.151 26.0019 321.161 25.8842 321.243 25.8264C321.867 25.385 322.609 25.1482 323.381 25.1482C324.144 25.1482 324.879 25.38 325.499 25.8128C325.581 25.8703 325.592 25.9885 325.521 26.0597L323.479 28.105Z" fill="white"/>
<path fill-rule="evenodd" clip-rule="evenodd" d="M308.75 17.75C308.198 17.75 307.75 18.1977 307.75 18.75V27.25C307.75 27.8023 308.198 28.25 308.75 28.25H309.75C310.302 28.25 310.75 27.8023 310.75 27.25V18.75C310.75 18.1977 310.302 17.75 309.75 17.75H308.75ZM303 21C303 20.4477 303.448 20 304 20H305C305.552 20 306 20.4477 306 21V27.25C306 27.8023 305.552 28.25 305 28.25H304C303.448 28.25 303 27.8023 303 27.25V21ZM299.25 22.5C298.698 22.5 298.25 22.9477 298.25 23.5V27.25C298.25 27.8023 298.698 28.25 299.25 28.25H300.25C300.802 28.25 301.25 27.8023 301.25 27.25V23.5C301.25 22.9477 300.802 22.5 300.25 22.5H299.25ZM294.5 24.5C293.948 24.5 293.5 24.9477 293.5 25.5V27.25C293.5 27.8023 293.948 28.25 294.5 28.25H295.5C296.052 28.25 296.5 27.8023 296.5 27.25V25.5C296.5 24.9477 296.052 24.5 295.5 24.5H294.5Z" fill="white"/>
<path d="M70.4552 23.5448V23.0448H69.9552H66.4139L73.5394 19.9606L70.4552 27.0861V23.5448Z" stroke="white"/>
<path d="M27.0459 28V19.0571H27.0093L24.2481 21.02V19.4087L27.0313 17.4312H28.6499V28H27.0459ZM30.9002 20.5293C30.9002 19.5771 31.242 18.791 31.9255 18.1709C32.614 17.5459 33.4832 17.2334 34.533 17.2334C35.5388 17.2334 36.3762 17.5166 37.0452 18.083C37.7141 18.6494 38.0486 19.3525 38.0486 20.1924C38.0486 20.7832 37.885 21.3447 37.5579 21.877C37.2307 22.4043 36.6594 23.0854 35.844 23.9204L33.2 26.5791V26.6157H38.2171V28H30.988V26.8867L34.804 22.9976C35.4485 22.3237 35.8806 21.8062 36.1004 21.4448C36.3201 21.0786 36.4299 20.688 36.4299 20.2729C36.4299 19.8042 36.242 19.4062 35.866 19.0791C35.49 18.752 35.0286 18.5884 34.4817 18.5884C33.9055 18.5884 33.4221 18.7739 33.0315 19.145C32.6458 19.5112 32.4529 19.9702 32.4529 20.522V20.5439H30.9002V20.5293ZM41.2656 26.0884C41.0801 26.2739 40.853 26.3667 40.5845 26.3667C40.3159 26.3667 40.0889 26.2739 39.9033 26.0884C39.7178 25.9028 39.625 25.6758 39.625 25.4072C39.625 25.1387 39.7178 24.9116 39.9033 24.7261C40.0889 24.5405 40.3159 24.4478 40.5845 24.4478C40.853 24.4478 41.0801 24.5405 41.2656 24.7261C41.4512 24.9116 41.5439 25.1387 41.5439 25.4072C41.5439 25.6758 41.4512 25.9028 41.2656 26.0884ZM41.2656 20.749C41.0801 20.9346 40.853 21.0273 40.5845 21.0273C40.3159 21.0273 40.0889 20.9346 39.9033 20.749C39.7178 20.5635 39.625 20.3364 39.625 20.0679C39.625 19.7993 39.7178 19.5723 39.9033 19.3867C40.0889 19.2012 40.3159 19.1084 40.5845 19.1084C40.853 19.1084 41.0801 19.2012 41.2656 19.3867C41.4512 19.5723 41.5439 19.7993 41.5439 20.0679C41.5439 20.3364 41.4512 20.5635 41.2656 20.749ZM43.0471 20.5293C43.0471 19.5771 43.3889 18.791 44.0725 18.1709C44.761 17.5459 45.6301 17.2334 46.6799 17.2334C47.6858 17.2334 48.5232 17.5166 49.1921 18.083C49.8611 18.6494 50.1955 19.3525 50.1955 20.1924C50.1955 20.7832 50.032 21.3447 49.7048 21.877C49.3777 22.4043 48.8064 23.0854 47.991 23.9204L45.3469 26.5791V26.6157H50.364V28H43.135V26.8867L46.9509 22.9976C47.5954 22.3237 48.0276 21.8062 48.2473 21.4448C48.467 21.0786 48.5769 20.688 48.5769 20.2729C48.5769 19.8042 48.3889 19.4062 48.0129 19.0791C47.637 18.752 47.1755 18.5884 46.6287 18.5884C46.0525 18.5884 45.5691 18.7739 45.1785 19.145C44.7927 19.5112 44.5998 19.9702 44.5998 20.522V20.5439H43.0471V20.5293ZM51.4936 20.5293C51.4936 19.5771 51.8354 18.791 52.519 18.1709C53.2075 17.5459 54.0766 17.2334 55.1264 17.2334C56.1323 17.2334 56.9697 17.5166 57.6387 18.083C58.3076 18.6494 58.6421 19.3525 58.6421 20.1924C58.6421 20.7832 58.4785 21.3447 58.1513 21.877C57.8242 22.4043 57.2529 23.0854 56.4375 23.9204L53.7934 26.5791V26.6157H58.8105V28H51.5815V26.8867L55.3974 22.9976C56.042 22.3237 56.4741 21.8062 56.6938 21.4448C56.9136 21.0786 57.0234 20.688 57.0234 20.2729C57.0234 19.8042 56.8354 19.4062 56.4595 19.0791C56.0835 18.752 55.6221 18.5884 55.0752 18.5884C54.499 18.5884 54.0156 18.7739 53.625 19.145C53.2392 19.5112 53.0464 19.9702 53.0464 20.522V20.5439H51.4936V20.5293Z" fill="white"/>
</svg>
